<?xml version="1.0" encoding="UTF-8"?>
<svg xmlns="http://www.w3.org/2000/svg" xmlns:xlink="http://www.w3.org/1999/xlink" width="24pt" height="24pt" viewBox="0 0 24 24" version="1.1">
<defs>
<filter id="alpha" filterUnits="objectBoundingBox" x="0%" y="0%" width="100%" height="100%">
  <feColorMatrix type="matrix" in="SourceGraphic" values="0 0 0 0 1 0 0 0 0 1 0 0 0 0 1 0 0 0 1 0"/>
</filter>
<mask id="mask0">
  <g filter="url(#alpha)">
<rect x="0" y="0" width="24" height="24" style="fill:rgb(0%,0%,0%);fill-opacity:0.780392;stroke:none;"/>
  </g>
</mask>
<linearGradient id="linear0" gradientUnits="userSpaceOnUse" x1="-808.8727" y1="199.8918" x2="-860.5692" y2="49.2029" gradientTransform="matrix(-0.0554531,0,0,-0.0554531,-38.267222,8.831372)">
<stop offset="0" style="stop-color:rgb(100%,100%,100%);stop-opacity:1;"/>
<stop offset="1" style="stop-color:rgb(100%,100%,100%);stop-opacity:0;"/>
</linearGradient>
<clipPath id="clip1">
  <rect width="24" height="24"/>
</clipPath>
<g id="surface6" clip-path="url(#clip1)">
<path style=" stroke:none;fill-rule:nonzero;fill:url(#linear0);" d="M 17.195312 1.925781 L 6.804688 1.925781 C 4.054688 1.925781 1.839844 4.160156 1.839844 6.929688 L 1.839844 17.070312 C 1.929688 19.234375 2.273438 17.863281 2.921875 15.46875 C 3.679688 12.683594 6.148438 10.246094 9.152344 8.421875 C 11.445312 7.03125 14.011719 6.140625 18.683594 6.054688 C 21.335938 6.007812 21.101562 2.617188 17.195312 1.925781 Z M 17.195312 1.925781 "/>
</g>
</defs>
<g id="surface1">
<path style=" stroke:none;fill-rule:nonzero;fill:rgb(11.372549%,54.901961%,70.980392%);fill-opacity:1;" d="M 19.6875 0.984375 L 4.3125 0.984375 C 2.472656 0.984375 0.984375 2.472656 0.984375 4.3125 L 0.984375 19.6875 C 0.984375 21.527344 2.472656 23.015625 4.3125 23.015625 L 19.6875 23.015625 C 21.527344 23.015625 23.015625 21.527344 23.015625 19.6875 L 23.015625 4.3125 C 23.015625 2.472656 21.527344 0.984375 19.6875 0.984375 Z M 19.6875 0.984375 "/>
<use xlink:href="#surface6" mask="url(#mask0)"/>
<path style=" stroke:none;fill-rule:nonzero;fill:rgb(100%,100%,100%);fill-opacity:1;" d="M 7.648438 19.476562 L 7.648438 9.515625 L 4.339844 9.515625 L 4.339844 19.476562 Z M 5.996094 8.15625 C 7.148438 8.15625 7.867188 7.390625 7.867188 6.433594 C 7.847656 5.457031 7.148438 4.710938 6.015625 4.710938 C 4.882812 4.710938 4.144531 5.457031 4.144531 6.433594 C 4.144531 7.390625 4.863281 8.15625 5.972656 8.15625 Z M 5.996094 8.15625 "/>
<path style=" stroke:none;fill-rule:nonzero;fill:rgb(100%,100%,100%);fill-opacity:1;" d="M 9.484375 19.476562 L 12.792969 19.476562 L 12.792969 13.914062 C 12.792969 13.617188 12.816406 13.320312 12.902344 13.105469 C 13.144531 12.511719 13.6875 11.894531 14.601562 11.894531 C 15.800781 11.894531 16.28125 12.808594 16.28125 14.148438 L 16.28125 19.476562 L 19.589844 19.476562 L 19.589844 13.765625 C 19.589844 10.703125 17.957031 9.28125 15.777344 9.28125 C 13.992188 9.28125 13.207031 10.277344 12.773438 10.960938 L 12.792969 10.960938 L 12.792969 9.515625 L 9.484375 9.515625 C 9.527344 10.449219 9.484375 19.476562 9.484375 19.476562 Z M 9.484375 19.476562 "/>
</g>
</svg>
